<svg xmlns="http://www.w3.org/2000/svg" width="18" height="18" viewBox="0 0 18 18">
    <g fill="none" fill-rule="evenodd">
        <g fill="#58595B" fill-rule="nonzero" stroke="#58595B" stroke-width=".3">
            <g>
                <g>
                    <path d="M15.936 1.45C15.915.726 15.531.257 14.869.193h-.042l-4.31-.085h-.042c-.747 0-1.259.277-1.558.533l-.021.021L.491 9.088c-.427.427-.427 1.152 0 1.579l4.97 4.97c.214.214.491.32.79.32h0c.298 0 .576-.106.789-.32l4.139-4.117c.042-.043.085-.085.128-.15l4.032-4.031c.256-.299.704-.939.682-1.814l-.085-4.074zm-1.173 5.334l-4.054 4.053c-.021.022-.042.043-.042.064-.022.022-.022.043-.043.064l-4.139 4.118c-.128.128-.341.128-.469 0l-4.97-4.971c-.129-.128-.129-.341 0-.47L9.45 1.238c.192-.149.533-.341 1.024-.341l4.33.085c.171.022.32.107.342.491l.085 4.075c0 .597-.299 1.045-.47 1.237zm-2.39-4.544c-.832 0-1.493.661-1.493 1.493 0 .832.661 1.494 1.493 1.494.832 0 1.494-.662 1.494-1.494s-.662-1.493-1.494-1.493zm0 2.197c-.384 0-.704-.32-.704-.704 0-.384.32-.704.704-.704.384 0 .704.32.704.704 0 .384-.32.704-.704.704zM9.557 8.32c.15.15.15.405 0 .555L6.251 12.18c-.086.086-.171.107-.278.107-.106 0-.192-.043-.277-.107-.15-.149-.15-.405 0-.554L9.003 8.32c.149-.15.405-.15.554 0zm-.426-2.304l-4.523 4.523c-.085.085-.17.106-.277.106-.107 0-.192-.042-.278-.106-.149-.15-.149-.406 0-.555l4.523-4.523c.15-.149.405-.149.555 0 .149.15.149.384 0 .555z" transform="translate(-120 -2728) translate(120 2729)"/>
                </g>
            </g>
        </g>
    </g>
</svg>
